# xmcd CD database file
#
# Track frame offsets:
#	150
#	18010
#	34892
#	47422
#	61494
#	74982
#	94109
#	107660
#	120927
#	136491
#	154659
#	172812
#	192084
#	204525
#
# Disc length: 2980 seconds
#
# Revision: 2
# Processed by: cddbd v1.5.2PL0 Copyright (c) Steve Scherf et al.
# Submitted via: CDex 1.51
#
DISCID=b80ba20e
DTITLE=Various Artist - Latin Only CD 8
DYEAR=1999
DGENRE=Latin
TTITLE0=La Revancha - Por Arte De Magia
TTITLE1=Media Naranja - El Amor Volverà
TTITLE2=Antonio Rios - Amor, Amor
TTITLE3=Onda Nueva - Transar
TTITLE4=La Maffia - Una Aventura
TTITLE5=Gilda - Hasta El Amanacer
TTITLE6=Los Palmeras - Cumbia Negra
TTITLE7=Onda Sabanera - Mueve Tus Caderas
TTITLE8=Media Naranja - Esta Noche
TTITLE9=Red - No Podre Olvidarte
TTITLE10=Potencia - Cuanto Te Amo
TTITLE11=Malagata - Quemas
TTITLE12=Los Palmeras - El Parrandero
TTITLE13=La Cumbia - Enganadora
EXTD=YEAR: 1999
EXTT0=
EXTT1=
EXTT2=
EXTT3=
EXTT4=
EXTT5=
EXTT6=
EXTT7=
EXTT8=
EXTT9=
EXTT10=
EXTT11=
EXTT12=
EXTT13=
PLAYORDER=
